<svg width="390" height="43" viewBox="0 0 390 43" fill="none" xmlns="http://www.w3.org/2000/svg">
<path d="M-6 41C4.14372 41 11.8975 33.4318 21.4538 31.3625C27.0762 30.1451 38.044 25.4737 42.6218 21.9052C48.1978 17.5586 62.4608 14.9173 69.7059 13.3485C78.934 11.3504 87.5477 9.09517 97.1597 8.57485C105.839 8.10503 114.705 8.57485 122.95 8.57485C131.648 8.57485 138.644 15.7145 147.076 16.6811C152.768 17.3336 164.148 21.0589 169.538 23.9768C177.86 28.4816 188.92 25.667 197.731 28.12C205.604 30.312 214.873 29.6512 223.613 29.6512C233.166 29.6512 238.057 23.893 246.168 21.635C263.201 16.893 278.459 3.71107 295.992 3.71107C305.571 3.71107 314.911 1.53776 325.109 2.08982C332.489 2.48929 340.588 6.7464 347.479 8.66492C360.462 12.2793 376.258 21.5449 390 21.5449" stroke="#1162FF" stroke-width="3" stroke-linecap="round"/>
</svg>
